<mxfile host="Electron" modified="2024-08-29T15:18:41.380Z" agent="Mozilla/5.0 (Windows NT 10.0; Win64; x64) AppleWebKit/537.36 (KHTML, like Gecko) draw.io/24.2.5 Chrome/120.0.6099.109 Electron/28.1.0 Safari/537.36" etag="_-VMl1qZW9YN6qH2wxO2" version="24.2.5" type="device">
  <diagram id="C5RBs43oDa-KdzZeNtuy" name="Page-1">
    <mxGraphModel dx="1290" dy="1798" grid="1" gridSize="10" guides="1" tooltips="1" connect="1" arrows="1" fold="1" page="1" pageScale="1" pageWidth="827" pageHeight="1169" math="0" shadow="0">
      <root>
        <mxCell id="WIyWlLk6GJQsqaUBKTNV-0" />
        <mxCell id="WIyWlLk6GJQsqaUBKTNV-1" parent="WIyWlLk6GJQsqaUBKTNV-0" />
        <mxCell id="ES5hfYS7cPZWWKxN6wWv-18" style="rounded=0;orthogonalLoop=1;jettySize=auto;html=1;" parent="WIyWlLk6GJQsqaUBKTNV-1" source="egm6HRRdN5qQD1DG4DTt-34" target="ES5hfYS7cPZWWKxN6wWv-1" edge="1">
          <mxGeometry relative="1" as="geometry" />
        </mxCell>
        <mxCell id="ES5hfYS7cPZWWKxN6wWv-19" style="rounded=0;orthogonalLoop=1;jettySize=auto;html=1;" parent="WIyWlLk6GJQsqaUBKTNV-1" source="egm6HRRdN5qQD1DG4DTt-34" target="ES5hfYS7cPZWWKxN6wWv-5" edge="1">
          <mxGeometry relative="1" as="geometry" />
        </mxCell>
        <mxCell id="ES5hfYS7cPZWWKxN6wWv-20" style="rounded=0;orthogonalLoop=1;jettySize=auto;html=1;" parent="WIyWlLk6GJQsqaUBKTNV-1" source="egm6HRRdN5qQD1DG4DTt-34" target="ES5hfYS7cPZWWKxN6wWv-3" edge="1">
          <mxGeometry relative="1" as="geometry" />
        </mxCell>
        <mxCell id="egm6HRRdN5qQD1DG4DTt-34" value="Proxy Container" style="swimlane;whiteSpace=wrap;html=1;" parent="WIyWlLk6GJQsqaUBKTNV-1" vertex="1">
          <mxGeometry x="310" y="-660" width="200" height="160" as="geometry" />
        </mxCell>
        <mxCell id="egm6HRRdN5qQD1DG4DTt-35" value="Proxy&lt;br&gt;(80, 443)" style="rounded=0;whiteSpace=wrap;html=1;" parent="egm6HRRdN5qQD1DG4DTt-34" vertex="1">
          <mxGeometry x="40" y="50" width="120" height="60" as="geometry" />
        </mxCell>
        <mxCell id="egm6HRRdN5qQD1DG4DTt-42" style="rounded=0;orthogonalLoop=1;jettySize=auto;html=1;" parent="egm6HRRdN5qQD1DG4DTt-34" source="egm6HRRdN5qQD1DG4DTt-40" target="egm6HRRdN5qQD1DG4DTt-35" edge="1">
          <mxGeometry relative="1" as="geometry" />
        </mxCell>
        <mxCell id="egm6HRRdN5qQD1DG4DTt-40" value="443" style="rhombus;whiteSpace=wrap;html=1;" parent="egm6HRRdN5qQD1DG4DTt-34" vertex="1">
          <mxGeometry x="110" y="140" width="80" height="40" as="geometry" />
        </mxCell>
        <mxCell id="egm6HRRdN5qQD1DG4DTt-41" style="rounded=0;orthogonalLoop=1;jettySize=auto;html=1;" parent="WIyWlLk6GJQsqaUBKTNV-1" source="egm6HRRdN5qQD1DG4DTt-39" target="egm6HRRdN5qQD1DG4DTt-35" edge="1">
          <mxGeometry relative="1" as="geometry" />
        </mxCell>
        <mxCell id="egm6HRRdN5qQD1DG4DTt-39" value="80" style="rhombus;whiteSpace=wrap;html=1;" parent="WIyWlLk6GJQsqaUBKTNV-1" vertex="1">
          <mxGeometry x="320" y="-520" width="80" height="40" as="geometry" />
        </mxCell>
        <mxCell id="ES5hfYS7cPZWWKxN6wWv-22" style="rounded=0;orthogonalLoop=1;jettySize=auto;html=1;" parent="WIyWlLk6GJQsqaUBKTNV-1" source="ES5hfYS7cPZWWKxN6wWv-1" target="egm6HRRdN5qQD1DG4DTt-34" edge="1">
          <mxGeometry relative="1" as="geometry" />
        </mxCell>
        <mxCell id="ES5hfYS7cPZWWKxN6wWv-1" value="CV Manager Webapp&lt;br&gt;(80)" style="rounded=0;whiteSpace=wrap;html=1;" parent="WIyWlLk6GJQsqaUBKTNV-1" vertex="1">
          <mxGeometry x="350" y="-780" width="120" height="60" as="geometry" />
        </mxCell>
        <mxCell id="ES5hfYS7cPZWWKxN6wWv-17" style="rounded=0;orthogonalLoop=1;jettySize=auto;html=1;" parent="WIyWlLk6GJQsqaUBKTNV-1" source="ES5hfYS7cPZWWKxN6wWv-3" target="ES5hfYS7cPZWWKxN6wWv-6" edge="1">
          <mxGeometry relative="1" as="geometry" />
        </mxCell>
        <mxCell id="ES5hfYS7cPZWWKxN6wWv-21" style="rounded=0;orthogonalLoop=1;jettySize=auto;html=1;" parent="WIyWlLk6GJQsqaUBKTNV-1" source="ES5hfYS7cPZWWKxN6wWv-3" target="egm6HRRdN5qQD1DG4DTt-34" edge="1">
          <mxGeometry relative="1" as="geometry" />
        </mxCell>
        <mxCell id="ES5hfYS7cPZWWKxN6wWv-3" value="CV Manager API&lt;br&gt;(3000)" style="rounded=0;whiteSpace=wrap;html=1;" parent="WIyWlLk6GJQsqaUBKTNV-1" vertex="1">
          <mxGeometry x="500" y="-780" width="120" height="60" as="geometry" />
        </mxCell>
        <mxCell id="ES5hfYS7cPZWWKxN6wWv-23" style="rounded=0;orthogonalLoop=1;jettySize=auto;html=1;" parent="WIyWlLk6GJQsqaUBKTNV-1" source="ES5hfYS7cPZWWKxN6wWv-5" target="egm6HRRdN5qQD1DG4DTt-34" edge="1">
          <mxGeometry relative="1" as="geometry" />
        </mxCell>
        <mxCell id="ES5hfYS7cPZWWKxN6wWv-24" style="rounded=0;orthogonalLoop=1;jettySize=auto;html=1;" parent="WIyWlLk6GJQsqaUBKTNV-1" source="ES5hfYS7cPZWWKxN6wWv-5" target="ES5hfYS7cPZWWKxN6wWv-6" edge="1">
          <mxGeometry relative="1" as="geometry" />
        </mxCell>
        <mxCell id="ES5hfYS7cPZWWKxN6wWv-5" value="Keycloak&lt;br&gt;(80)" style="rounded=0;whiteSpace=wrap;html=1;" parent="WIyWlLk6GJQsqaUBKTNV-1" vertex="1">
          <mxGeometry x="200" y="-780" width="120" height="60" as="geometry" />
        </mxCell>
        <mxCell id="ES5hfYS7cPZWWKxN6wWv-6" value="CV Manager Database" style="shape=cylinder3;whiteSpace=wrap;html=1;boundedLbl=1;backgroundOutline=1;size=15;" parent="WIyWlLk6GJQsqaUBKTNV-1" vertex="1">
          <mxGeometry x="380" y="-920" width="60" height="80" as="geometry" />
        </mxCell>
        <mxCell id="ES5hfYS7cPZWWKxN6wWv-15" style="rounded=0;orthogonalLoop=1;jettySize=auto;html=1;" parent="WIyWlLk6GJQsqaUBKTNV-1" source="ES5hfYS7cPZWWKxN6wWv-11" target="egm6HRRdN5qQD1DG4DTt-39" edge="1">
          <mxGeometry relative="1" as="geometry" />
        </mxCell>
        <mxCell id="ES5hfYS7cPZWWKxN6wWv-16" style="rounded=0;orthogonalLoop=1;jettySize=auto;html=1;" parent="WIyWlLk6GJQsqaUBKTNV-1" source="ES5hfYS7cPZWWKxN6wWv-11" target="egm6HRRdN5qQD1DG4DTt-40" edge="1">
          <mxGeometry relative="1" as="geometry" />
        </mxCell>
        <mxCell id="ES5hfYS7cPZWWKxN6wWv-11" value="Test VM&lt;br&gt;&lt;div&gt;(Host Machine)&lt;/div&gt;" style="rounded=0;whiteSpace=wrap;html=1;" parent="WIyWlLk6GJQsqaUBKTNV-1" vertex="1">
          <mxGeometry x="350" y="-440" width="120" height="60" as="geometry" />
        </mxCell>
        <mxCell id="ES5hfYS7cPZWWKxN6wWv-25" style="edgeStyle=orthogonalEdgeStyle;rounded=0;orthogonalLoop=1;jettySize=auto;html=1;" parent="WIyWlLk6GJQsqaUBKTNV-1" source="ES5hfYS7cPZWWKxN6wWv-13" target="ES5hfYS7cPZWWKxN6wWv-11" edge="1">
          <mxGeometry relative="1" as="geometry" />
        </mxCell>
        <mxCell id="ES5hfYS7cPZWWKxN6wWv-13" value="User Machine" style="rounded=0;whiteSpace=wrap;html=1;" parent="WIyWlLk6GJQsqaUBKTNV-1" vertex="1">
          <mxGeometry x="350" y="-340" width="120" height="60" as="geometry" />
        </mxCell>
      </root>
    </mxGraphModel>
  </diagram>
</mxfile>
